<mxfile host="app.diagrams.net" agent="Mozilla/5.0 (Windows NT 10.0; Win64; x64) AppleWebKit/537.36 (KHTML, like Gecko) Chrome/131.0.0.0 Safari/537.36 Edg/131.0.0.0" version="26.0.4">
  <diagram name="Page-1" id="lsieVkdeLEZR_Laxwm1v">
    <mxGraphModel dx="1050" dy="569" grid="1" gridSize="10" guides="1" tooltips="1" connect="1" arrows="1" fold="1" page="1" pageScale="1" pageWidth="827" pageHeight="1169" math="0" shadow="0">
      <root>
        <mxCell id="0" />
        <mxCell id="1" parent="0" />
        <mxCell id="mlpfNUjWieEdOG7VWDHs-1" value="D_Restaurant" style="swimlane;fontStyle=0;childLayout=stackLayout;horizontal=1;startSize=30;horizontalStack=0;resizeParent=1;resizeParentMax=0;resizeLast=0;collapsible=1;marginBottom=0;whiteSpace=wrap;html=1;fillColor=#dae8fc;strokeColor=#6c8ebf;" vertex="1" parent="1">
          <mxGeometry x="380" y="240" width="140" height="240" as="geometry" />
        </mxCell>
        <mxCell id="mlpfNUjWieEdOG7VWDHs-2" value="&lt;strong&gt;id_restaurant&lt;/strong&gt;" style="text;strokeColor=none;fillColor=none;align=left;verticalAlign=middle;spacingLeft=4;spacingRight=4;overflow=hidden;points=[[0,0.5],[1,0.5]];portConstraint=eastwest;rotatable=0;whiteSpace=wrap;html=1;" vertex="1" parent="mlpfNUjWieEdOG7VWDHs-1">
          <mxGeometry y="30" width="140" height="30" as="geometry" />
        </mxCell>
        <mxCell id="mlpfNUjWieEdOG7VWDHs-3" value="&lt;strong&gt;nom&lt;/strong&gt;" style="text;strokeColor=none;fillColor=none;align=left;verticalAlign=middle;spacingLeft=4;spacingRight=4;overflow=hidden;points=[[0,0.5],[1,0.5]];portConstraint=eastwest;rotatable=0;whiteSpace=wrap;html=1;" vertex="1" parent="mlpfNUjWieEdOG7VWDHs-1">
          <mxGeometry y="60" width="140" height="30" as="geometry" />
        </mxCell>
        <mxCell id="mlpfNUjWieEdOG7VWDHs-4" value="&lt;strong&gt;categorie&lt;/strong&gt;" style="text;strokeColor=none;fillColor=none;align=left;verticalAlign=middle;spacingLeft=4;spacingRight=4;overflow=hidden;points=[[0,0.5],[1,0.5]];portConstraint=eastwest;rotatable=0;whiteSpace=wrap;html=1;" vertex="1" parent="mlpfNUjWieEdOG7VWDHs-1">
          <mxGeometry y="90" width="140" height="30" as="geometry" />
        </mxCell>
        <mxCell id="mlpfNUjWieEdOG7VWDHs-22" value="&lt;div&gt;&lt;strong style=&quot;color: rgb(0, 0, 0); background-color: rgb(251, 251, 251);&quot;&gt;tags&lt;/strong&gt;&lt;/div&gt;&lt;div&gt;&lt;strong style=&quot;forced-color-adjust: none; color: rgb(0, 0, 0); font-family: Helvetica; font-size: 12px; font-style: normal; font-variant-ligatures: normal; font-variant-caps: normal; letter-spacing: normal; orphans: 2; text-align: left; text-indent: 0px; text-transform: none; widows: 2; word-spacing: 0px; -webkit-text-stroke-width: 0px; white-space: normal; background-color: rgb(251, 251, 251); text-decoration-thickness: initial; text-decoration-style: initial; text-decoration-color: initial;&quot;&gt;&lt;br&gt;&lt;/strong&gt;&lt;/div&gt;" style="text;strokeColor=none;fillColor=none;align=left;verticalAlign=middle;spacingLeft=4;spacingRight=4;overflow=hidden;points=[[0,0.5],[1,0.5]];portConstraint=eastwest;rotatable=0;whiteSpace=wrap;html=1;" vertex="1" parent="mlpfNUjWieEdOG7VWDHs-1">
          <mxGeometry y="120" width="140" height="30" as="geometry" />
        </mxCell>
        <mxCell id="mlpfNUjWieEdOG7VWDHs-21" value="&lt;strong style=&quot;forced-color-adjust: none; color: rgb(0, 0, 0); font-family: Helvetica; font-size: 12px; font-style: normal; font-variant-ligatures: normal; font-variant-caps: normal; letter-spacing: normal; orphans: 2; text-align: left; text-indent: 0px; text-transform: none; widows: 2; word-spacing: 0px; -webkit-text-stroke-width: 0px; white-space: normal; background-color: rgb(251, 251, 251); text-decoration-thickness: initial; text-decoration-style: initial; text-decoration-color: initial;&quot;&gt;note_globale&lt;/strong&gt;&lt;div&gt;&lt;br/&gt;&lt;/div&gt;" style="text;strokeColor=none;fillColor=none;align=left;verticalAlign=middle;spacingLeft=4;spacingRight=4;overflow=hidden;points=[[0,0.5],[1,0.5]];portConstraint=eastwest;rotatable=0;whiteSpace=wrap;html=1;" vertex="1" parent="mlpfNUjWieEdOG7VWDHs-1">
          <mxGeometry y="150" width="140" height="30" as="geometry" />
        </mxCell>
        <mxCell id="mlpfNUjWieEdOG7VWDHs-20" value="&lt;strong style=&quot;forced-color-adjust: none; color: rgb(0, 0, 0); font-family: Helvetica; font-size: 12px; font-style: normal; font-variant-ligatures: normal; font-variant-caps: normal; letter-spacing: normal; orphans: 2; text-align: left; text-indent: 0px; text-transform: none; widows: 2; word-spacing: 0px; -webkit-text-stroke-width: 0px; white-space: normal; background-color: rgb(251, 251, 251); text-decoration-thickness: initial; text-decoration-style: initial; text-decoration-color: initial;&quot;&gt;total_comments&lt;/strong&gt;&lt;div&gt;&lt;br/&gt;&lt;/div&gt;" style="text;strokeColor=none;fillColor=none;align=left;verticalAlign=middle;spacingLeft=4;spacingRight=4;overflow=hidden;points=[[0,0.5],[1,0.5]];portConstraint=eastwest;rotatable=0;whiteSpace=wrap;html=1;" vertex="1" parent="mlpfNUjWieEdOG7VWDHs-1">
          <mxGeometry y="180" width="140" height="30" as="geometry" />
        </mxCell>
        <mxCell id="mlpfNUjWieEdOG7VWDHs-23" value="&lt;strong style=&quot;forced-color-adjust: none; color: rgb(0, 0, 0); font-family: Helvetica; font-size: 12px; font-style: normal; font-variant-ligatures: normal; font-variant-caps: normal; letter-spacing: normal; orphans: 2; text-align: left; text-indent: 0px; text-transform: none; widows: 2; word-spacing: 0px; -webkit-text-stroke-width: 0px; white-space: normal; background-color: rgb(251, 251, 251); text-decoration-thickness: initial; text-decoration-style: initial; text-decoration-color: initial;&quot;&gt;id_localisation&lt;/strong&gt;&lt;div&gt;&lt;br/&gt;&lt;/div&gt;" style="text;strokeColor=none;fillColor=none;align=left;verticalAlign=middle;spacingLeft=4;spacingRight=4;overflow=hidden;points=[[0,0.5],[1,0.5]];portConstraint=eastwest;rotatable=0;whiteSpace=wrap;html=1;" vertex="1" parent="mlpfNUjWieEdOG7VWDHs-1">
          <mxGeometry y="210" width="140" height="30" as="geometry" />
        </mxCell>
        <mxCell id="mlpfNUjWieEdOG7VWDHs-5" value="F_Avis" style="swimlane;fontStyle=0;childLayout=stackLayout;horizontal=1;startSize=26;fillColor=#f8cecc;horizontalStack=0;resizeParent=1;resizeParentMax=0;resizeLast=0;collapsible=1;marginBottom=0;whiteSpace=wrap;html=1;strokeColor=#b85450;" vertex="1" parent="1">
          <mxGeometry x="140" y="140" width="140" height="236" as="geometry" />
        </mxCell>
        <mxCell id="mlpfNUjWieEdOG7VWDHs-6" value="&lt;strong&gt;id_avis&lt;/strong&gt;" style="text;strokeColor=none;fillColor=none;align=left;verticalAlign=top;spacingLeft=4;spacingRight=4;overflow=hidden;rotatable=0;points=[[0,0.5],[1,0.5]];portConstraint=eastwest;whiteSpace=wrap;html=1;" vertex="1" parent="mlpfNUjWieEdOG7VWDHs-5">
          <mxGeometry y="26" width="140" height="26" as="geometry" />
        </mxCell>
        <mxCell id="mlpfNUjWieEdOG7VWDHs-7" value="&lt;strong&gt;id_restaurant&lt;/strong&gt;" style="text;strokeColor=none;fillColor=none;align=left;verticalAlign=top;spacingLeft=4;spacingRight=4;overflow=hidden;rotatable=0;points=[[0,0.5],[1,0.5]];portConstraint=eastwest;whiteSpace=wrap;html=1;" vertex="1" parent="mlpfNUjWieEdOG7VWDHs-5">
          <mxGeometry y="52" width="140" height="26" as="geometry" />
        </mxCell>
        <mxCell id="mlpfNUjWieEdOG7VWDHs-8" value="&lt;strong&gt;note_restaurant&lt;/strong&gt;" style="text;strokeColor=none;fillColor=none;align=left;verticalAlign=top;spacingLeft=4;spacingRight=4;overflow=hidden;rotatable=0;points=[[0,0.5],[1,0.5]];portConstraint=eastwest;whiteSpace=wrap;html=1;" vertex="1" parent="mlpfNUjWieEdOG7VWDHs-5">
          <mxGeometry y="78" width="140" height="32" as="geometry" />
        </mxCell>
        <mxCell id="mlpfNUjWieEdOG7VWDHs-15" value="&lt;strong&gt;date_avis&lt;/strong&gt;" style="text;strokeColor=none;fillColor=none;align=left;verticalAlign=top;spacingLeft=4;spacingRight=4;overflow=hidden;rotatable=0;points=[[0,0.5],[1,0.5]];portConstraint=eastwest;whiteSpace=wrap;html=1;" vertex="1" parent="mlpfNUjWieEdOG7VWDHs-5">
          <mxGeometry y="110" width="140" height="30" as="geometry" />
        </mxCell>
        <mxCell id="mlpfNUjWieEdOG7VWDHs-17" value="&lt;strong&gt;titre_avis&lt;/strong&gt;" style="text;strokeColor=none;fillColor=none;align=left;verticalAlign=top;spacingLeft=4;spacingRight=4;overflow=hidden;rotatable=0;points=[[0,0.5],[1,0.5]];portConstraint=eastwest;whiteSpace=wrap;html=1;" vertex="1" parent="mlpfNUjWieEdOG7VWDHs-5">
          <mxGeometry y="140" width="140" height="32" as="geometry" />
        </mxCell>
        <mxCell id="mlpfNUjWieEdOG7VWDHs-16" value="&lt;strong style=&quot;forced-color-adjust: none; color: rgb(0, 0, 0); font-family: Helvetica; font-size: 12px; font-style: normal; font-variant-ligatures: normal; font-variant-caps: normal; letter-spacing: normal; orphans: 2; text-align: left; text-indent: 0px; text-transform: none; widows: 2; word-spacing: 0px; -webkit-text-stroke-width: 0px; white-space: normal; background-color: rgb(251, 251, 251); text-decoration-thickness: initial; text-decoration-style: initial; text-decoration-color: initial;&quot;&gt;contenu_avis&lt;/strong&gt;&lt;div&gt;&lt;br/&gt;&lt;/div&gt;" style="text;strokeColor=none;fillColor=none;align=left;verticalAlign=top;spacingLeft=4;spacingRight=4;overflow=hidden;rotatable=0;points=[[0,0.5],[1,0.5]];portConstraint=eastwest;whiteSpace=wrap;html=1;" vertex="1" parent="mlpfNUjWieEdOG7VWDHs-5">
          <mxGeometry y="172" width="140" height="32" as="geometry" />
        </mxCell>
        <mxCell id="mlpfNUjWieEdOG7VWDHs-19" value="&lt;strong style=&quot;forced-color-adjust: none; color: rgb(0, 0, 0); font-family: Helvetica; font-size: 12px; font-style: normal; font-variant-ligatures: normal; font-variant-caps: normal; letter-spacing: normal; orphans: 2; text-align: left; text-indent: 0px; text-transform: none; widows: 2; word-spacing: 0px; -webkit-text-stroke-width: 0px; white-space: normal; background-color: rgb(251, 251, 251); text-decoration-thickness: initial; text-decoration-style: initial; text-decoration-color: initial;&quot;&gt;id_localisation&lt;/strong&gt;&lt;div&gt;&lt;br/&gt;&lt;/div&gt;" style="text;strokeColor=none;fillColor=none;align=left;verticalAlign=top;spacingLeft=4;spacingRight=4;overflow=hidden;rotatable=0;points=[[0,0.5],[1,0.5]];portConstraint=eastwest;whiteSpace=wrap;html=1;" vertex="1" parent="mlpfNUjWieEdOG7VWDHs-5">
          <mxGeometry y="204" width="140" height="32" as="geometry" />
        </mxCell>
        <mxCell id="mlpfNUjWieEdOG7VWDHs-9" value="D_Localisation" style="swimlane;fontStyle=0;childLayout=stackLayout;horizontal=1;startSize=30;horizontalStack=0;resizeParent=1;resizeParentMax=0;resizeLast=0;collapsible=1;marginBottom=0;whiteSpace=wrap;html=1;fillColor=#dae8fc;strokeColor=#6c8ebf;" vertex="1" parent="1">
          <mxGeometry x="100" y="450" width="140" height="270" as="geometry" />
        </mxCell>
        <mxCell id="mlpfNUjWieEdOG7VWDHs-10" value="&lt;strong&gt;id_localisation&lt;/strong&gt;" style="text;strokeColor=none;fillColor=none;align=left;verticalAlign=middle;spacingLeft=4;spacingRight=4;overflow=hidden;points=[[0,0.5],[1,0.5]];portConstraint=eastwest;rotatable=0;whiteSpace=wrap;html=1;" vertex="1" parent="mlpfNUjWieEdOG7VWDHs-9">
          <mxGeometry y="30" width="140" height="30" as="geometry" />
        </mxCell>
        <mxCell id="mlpfNUjWieEdOG7VWDHs-11" value="&lt;strong&gt;ville&lt;/strong&gt;" style="text;strokeColor=none;fillColor=none;align=left;verticalAlign=middle;spacingLeft=4;spacingRight=4;overflow=hidden;points=[[0,0.5],[1,0.5]];portConstraint=eastwest;rotatable=0;whiteSpace=wrap;html=1;" vertex="1" parent="mlpfNUjWieEdOG7VWDHs-9">
          <mxGeometry y="60" width="140" height="30" as="geometry" />
        </mxCell>
        <mxCell id="mlpfNUjWieEdOG7VWDHs-12" value="&lt;strong&gt;code_postal&lt;/strong&gt;" style="text;strokeColor=none;fillColor=none;align=left;verticalAlign=middle;spacingLeft=4;spacingRight=4;overflow=hidden;points=[[0,0.5],[1,0.5]];portConstraint=eastwest;rotatable=0;whiteSpace=wrap;html=1;" vertex="1" parent="mlpfNUjWieEdOG7VWDHs-9">
          <mxGeometry y="90" width="140" height="30" as="geometry" />
        </mxCell>
        <mxCell id="mlpfNUjWieEdOG7VWDHs-25" value="&lt;strong style=&quot;forced-color-adjust: none; color: rgb(0, 0, 0); font-family: Helvetica; font-size: 12px; font-style: normal; font-variant-ligatures: normal; font-variant-caps: normal; letter-spacing: normal; orphans: 2; text-align: left; text-indent: 0px; text-transform: none; widows: 2; word-spacing: 0px; -webkit-text-stroke-width: 0px; white-space: normal; background-color: rgb(251, 251, 251); text-decoration-thickness: initial; text-decoration-style: initial; text-decoration-color: initial;&quot;&gt;latitude&lt;/strong&gt;&lt;div&gt;&lt;br/&gt;&lt;/div&gt;" style="text;strokeColor=none;fillColor=none;align=left;verticalAlign=middle;spacingLeft=4;spacingRight=4;overflow=hidden;points=[[0,0.5],[1,0.5]];portConstraint=eastwest;rotatable=0;whiteSpace=wrap;html=1;" vertex="1" parent="mlpfNUjWieEdOG7VWDHs-9">
          <mxGeometry y="120" width="140" height="30" as="geometry" />
        </mxCell>
        <mxCell id="mlpfNUjWieEdOG7VWDHs-29" value="&lt;strong style=&quot;forced-color-adjust: none; color: rgb(0, 0, 0); font-family: Helvetica; font-size: 12px; font-style: normal; font-variant-ligatures: normal; font-variant-caps: normal; letter-spacing: normal; orphans: 2; text-align: left; text-indent: 0px; text-transform: none; widows: 2; word-spacing: 0px; -webkit-text-stroke-width: 0px; white-space: normal; background-color: rgb(251, 251, 251); text-decoration-thickness: initial; text-decoration-style: initial; text-decoration-color: initial;&quot;&gt;longitude&lt;/strong&gt;&lt;div&gt;&lt;br/&gt;&lt;/div&gt;" style="text;strokeColor=none;fillColor=none;align=left;verticalAlign=middle;spacingLeft=4;spacingRight=4;overflow=hidden;points=[[0,0.5],[1,0.5]];portConstraint=eastwest;rotatable=0;whiteSpace=wrap;html=1;" vertex="1" parent="mlpfNUjWieEdOG7VWDHs-9">
          <mxGeometry y="150" width="140" height="30" as="geometry" />
        </mxCell>
        <mxCell id="mlpfNUjWieEdOG7VWDHs-28" value="&lt;strong style=&quot;forced-color-adjust: none; color: rgb(0, 0, 0); font-family: Helvetica; font-size: 12px; font-style: normal; font-variant-ligatures: normal; font-variant-caps: normal; letter-spacing: normal; orphans: 2; text-align: left; text-indent: 0px; text-transform: none; widows: 2; word-spacing: 0px; -webkit-text-stroke-width: 0px; white-space: normal; background-color: rgb(251, 251, 251); text-decoration-thickness: initial; text-decoration-style: initial; text-decoration-color: initial;&quot;&gt;densite_restaurants&lt;/strong&gt;&lt;div&gt;&lt;br/&gt;&lt;/div&gt;" style="text;strokeColor=none;fillColor=none;align=left;verticalAlign=middle;spacingLeft=4;spacingRight=4;overflow=hidden;points=[[0,0.5],[1,0.5]];portConstraint=eastwest;rotatable=0;whiteSpace=wrap;html=1;" vertex="1" parent="mlpfNUjWieEdOG7VWDHs-9">
          <mxGeometry y="180" width="140" height="30" as="geometry" />
        </mxCell>
        <mxCell id="mlpfNUjWieEdOG7VWDHs-31" value="infosocio_econo" style="text;strokeColor=none;fillColor=none;align=left;verticalAlign=middle;spacingLeft=4;spacingRight=4;overflow=hidden;points=[[0,0.5],[1,0.5]];portConstraint=eastwest;rotatable=0;whiteSpace=wrap;html=1;" vertex="1" parent="mlpfNUjWieEdOG7VWDHs-9">
          <mxGeometry y="210" width="140" height="30" as="geometry" />
        </mxCell>
        <mxCell id="mlpfNUjWieEdOG7VWDHs-30" value="acces_transport" style="text;strokeColor=none;fillColor=none;align=left;verticalAlign=middle;spacingLeft=4;spacingRight=4;overflow=hidden;points=[[0,0.5],[1,0.5]];portConstraint=eastwest;rotatable=0;whiteSpace=wrap;html=1;" vertex="1" parent="mlpfNUjWieEdOG7VWDHs-9">
          <mxGeometry y="240" width="140" height="30" as="geometry" />
        </mxCell>
        <mxCell id="mlpfNUjWieEdOG7VWDHs-13" value="&lt;li&gt;&lt;strong&gt;id_avis&lt;/strong&gt; : Identifiant unique de l&#39;avis (clé primaire).&lt;/li&gt;&lt;li&gt;&lt;strong&gt;id_restaurant&lt;/strong&gt; : Identifiant du restaurant (clé étrangère vers &lt;code&gt;Dim_Restaurants&lt;/code&gt;).&lt;/li&gt;&lt;li&gt;&lt;strong&gt;note_restaurant&lt;/strong&gt; : Note attribuée au restaurant dans cet avis.&lt;/li&gt;&lt;li&gt;&lt;strong&gt;date_avis&lt;/strong&gt; : Date de l&#39;avis.&lt;/li&gt;&lt;li&gt;&lt;strong&gt;titre_avis&lt;/strong&gt; : Titre de l&#39;avis.&lt;/li&gt;&lt;li&gt;&lt;strong&gt;contenu_avis&lt;/strong&gt; : Contenu textuel de l&#39;avis.&lt;/li&gt;&lt;li&gt;&lt;strong&gt;id_localisation&lt;/strong&gt; :&amp;nbsp;&lt;/li&gt;" style="text;whiteSpace=wrap;html=1;" vertex="1" parent="1">
          <mxGeometry x="740" y="80" width="480" height="120" as="geometry" />
        </mxCell>
        <mxCell id="mlpfNUjWieEdOG7VWDHs-14" value="&lt;li&gt;&lt;p&gt;&lt;strong&gt;Dim_Restaurants&lt;/strong&gt;&lt;/p&gt;&lt;ul&gt;&lt;li&gt;&lt;strong&gt;id_restaurant&lt;/strong&gt; : Identifiant unique du restaurant (clé primaire).&lt;/li&gt;&lt;li&gt;&lt;strong&gt;nom&lt;/strong&gt; : Nom du restaurant.&lt;/li&gt;&lt;li&gt;&lt;strong&gt;categorie&lt;/strong&gt; : Catégorie du restaurant (ex. restaurant, brasserie, etc.).&lt;/li&gt;&lt;li&gt;&lt;strong&gt;tags&lt;/strong&gt; : Tags descriptifs (ex. cuisines proposées, particularités).&lt;/li&gt;&lt;li&gt;&lt;strong&gt;note_globale&lt;/strong&gt; : Note moyenne du restaurant.&lt;/li&gt;&lt;li&gt;&lt;strong&gt;total_comments&lt;/strong&gt; : Nombre total de commentaires.&lt;/li&gt;&lt;li&gt;&lt;strong&gt;id_localisation&lt;/strong&gt; : Identifiant géographique du restaurant (clé étrangère vers &lt;code&gt;Dim_Geographie&lt;/code&gt;).&lt;/li&gt;&lt;/ul&gt;&lt;/li&gt;&lt;li&gt;&lt;p&gt;&lt;strong&gt;Dim_Geographie&lt;/strong&gt;&lt;/p&gt;&lt;ul&gt;&lt;li&gt;&lt;strong&gt;id_localisation&lt;/strong&gt; : Identifiant unique de la localisation (clé primaire).&lt;/li&gt;&lt;li&gt;&lt;strong&gt;adresse&lt;/strong&gt; : Adresse complète.&lt;/li&gt;&lt;li&gt;&lt;strong&gt;ville&lt;/strong&gt; : Ville (ex. Lyon).&lt;/li&gt;&lt;li&gt;&lt;strong&gt;code_postal&lt;/strong&gt; : Code postal.&lt;/li&gt;&lt;li&gt;&lt;strong&gt;latitude&lt;/strong&gt; : Coordonnée géographique.&lt;/li&gt;&lt;li&gt;&lt;strong&gt;longitude&lt;/strong&gt; : Coordonnée géographique.&lt;/li&gt;&lt;li&gt;&lt;strong&gt;densite_restaurants&lt;/strong&gt; : Nombre de restaurants dans le périmètre.&lt;/li&gt;&lt;li&gt;&lt;br&gt;&lt;/li&gt;&lt;li&gt;&lt;strong&gt;informations_socio_economiques&lt;/strong&gt; : Données socio-économiques locales (si disponibles).&lt;/li&gt;&lt;/ul&gt;&lt;/li&gt;" style="text;whiteSpace=wrap;html=1;" vertex="1" parent="1">
          <mxGeometry x="720" y="240" width="560" height="400" as="geometry" />
        </mxCell>
      </root>
    </mxGraphModel>
  </diagram>
</mxfile>
